<?xml version="1.0" encoding="UTF-8" standalone="no"?>
<!-- Created with Inkscape (http://www.inkscape.org/) -->

<svg
   width="210mm"
   height="297mm"
   viewBox="0 0 210 297"
   version="1.1"
   id="svg1"
   xml:space="preserve"
   inkscape:version="1.4 (e7c3feb100, 2024-10-09)"
   sodipodi:docname="bannana_guard.svg"
   xmlns:inkscape="http://www.inkscape.org/namespaces/inkscape"
   xmlns:sodipodi="http://sodipodi.sourceforge.net/DTD/sodipodi-0.dtd"
   xmlns="http://www.w3.org/2000/svg"
   xmlns:svg="http://www.w3.org/2000/svg"
   xmlns:rdf="http://www.w3.org/1999/02/22-rdf-syntax-ns#"
   xmlns:cc="http://creativecommons.org/ns#"
   xmlns:dc="http://purl.org/dc/elements/1.1/"><defs
     id="defs1" /><sodipodi:namedview
     id="base"
     pagecolor="#ffffff"
     bordercolor="#000000"
     borderopacity="0.3"
     inkscape:pageopacity="0.0"
     inkscape:pageshadow="2"
     inkscape:zoom="0.49497475"
     inkscape:cx="-145.46197"
     inkscape:cy="630.33519"
     inkscape:document-units="mm"
     inkscape:showpageshadow="2"
     inkscape:pagecheckerboard="0"
     inkscape:deskcolor="#d1d1d1"
     inkscape:window-width="1920"
     inkscape:window-height="1011"
     inkscape:window-x="0"
     inkscape:window-y="0"
     inkscape:window-maximized="1"
     inkscape:current-layer="layer1" /><metadata
     id="metadata1"><rdf:RDF><cc:Work
         rdf:about=""><dc:format>image/svg+xml</dc:format><dc:type
           rdf:resource="http://purl.org/dc/dcmitype/StillImage" /></cc:Work></rdf:RDF></metadata><g
     id="g1"
     transform="matrix(0.26458333,0,0,0.26458333,-3.7831614,33.202751)"
     inkscape:label="bananna guard"
     sodipodi:insensitive="true"
     style="display:none"><path
       d="m 542.25254,13.242386 c 0.99,0 1.98,0 3,0 0.31904,1.939394 0.31904,1.939394 0.64453,3.917968 1.44491,7.206828 3.8713,14.079205 6.23614,21.02472 0.81816,2.403103 1.6286,4.808692 2.4372,7.215027 2.30263,6.84523 4.62683,13.68301 6.95947,20.518066 0.31945,0.942547 0.63889,1.885093 0.96802,2.856201 0.56038,1.651903 1.12606,3.302024 1.69873,4.949707 3.47688,10.245335 4.98396,18.143882 1.05591,28.518315 -1.77231,3.50511 -3.79508,6.75306 -6,10 -0.63229,0.96679 -0.63229,0.96679 -1.27735,1.95313 -0.8923,1.35909 -1.80457,2.70506 -2.72265,4.04687 1.0725,0.22688 2.145,0.45375 3.25,0.6875 4.16998,1.45949 5.423,2.643 7.75,6.3125 1.44933,4.34799 1.51669,8.45595 1,13 -1.96178,3.8535 -4.08313,7.04156 -8,9 -3.47304,0.37359 -6.80803,0.59599 -10,-1 0.12117,1.21945 0.24234,2.43891 0.36719,3.69531 0.61467,6.42936 1.1307,12.86568 1.63281,19.30469 0.096,1.19673 0.19207,2.39347 0.29101,3.62646 3.82496,50.09516 1.86361,100.79013 1.30238,150.98216 -0.0204,1.82985 -0.0406,3.65969 -0.0605,5.48954 -0.057,5.22431 -0.11779,10.44854 -0.18464,15.67272 -0.021,1.65774 -0.0413,3.31548 -0.0608,4.97324 -0.0988,8.22973 -0.25674,16.44335 -0.68634,24.66311 -0.0636,1.28806 -0.12715,2.57613 -0.19265,3.90323 -0.12414,2.35106 -0.26681,4.70127 -0.43295,7.04974 -0.36219,6.7757 0.51732,10.8768 4.02452,16.6398 2.63997,6.99593 3.34052,14.52684 0.625,21.5625 -1.625,2.4375 -1.625,2.4375 -3.625,4.4375 -0.1916,3.08002 -0.25588,6.06967 -0.23378,9.15047 -10e-4,0.96034 -0.002,1.92067 -0.003,2.91011 -9.6e-4,3.23876 0.0124,6.4773 0.0256,9.71603 0.002,2.31415 0.004,4.6283 0.004,6.94245 0.003,4.99552 0.0122,9.99098 0.0263,14.98649 0.0204,7.23685 0.0294,14.47367 0.0349,21.71055 0.009,11.75935 0.0267,23.51867 0.05,35.27799 10e-4,0.70424 0.003,1.40847 0.004,2.13405 0.002,1.05758 0.002,1.05758 0.004,2.13653 0.0197,9.96905 0.0376,19.9381 0.0531,29.90716 0.001,0.70004 0.002,1.40008 0.003,2.12134 0.0181,11.7014 0.032,23.4028 0.0439,35.10421 0.008,7.85083 0.0224,15.70162 0.041,23.55244 0.0107,4.89974 0.0172,9.79948 0.0228,14.69922 0.003,2.26342 0.009,4.52683 0.0158,6.79023 0.0892,29.03455 0.0892,29.03455 -2.09229,36.86073 0.53625,0.0619 1.0725,0.12375 1.625,0.1875 5.21115,1.78276 8.32543,5.13994 10.75,9.9375 2.07704,5.2275 2.51581,10.32455 1.625,15.875 -1.09143,2.4463 -2.22747,3.95051 -4,6 1.06597,2.32575 2.21722,4.2988 3.72656,6.375 5.06168,6.99887 6.2145,12.06584 5.27344,20.625 -0.66,0 -1.32,0 -2,0 -0.0619,0.99 -0.0619,0.99 -0.125,2 -2.02873,6.95564 -6.85068,11.47957 -12.94531,15.08984 -5.69528,2.68624 -12.02367,2.7181 -17.99219,0.91016 -6.06677,-2.5318 -9.51305,-7.70249 -12.875,-13.125 -2.37906,-6.39835 -2.34302,-14.93652 0.35547,-21.12891 1.49852,-2.60113 3.00451,-5.192 4.58203,-7.74609 -0.94875,-0.7425 -1.8975,-1.485 -2.875,-2.25 -3.35526,-2.62585 -4.86891,-5.01399 -5.4961,-9.26563 -0.16478,-6.78512 0.73111,-11.39568 5.3711,-16.48437 0.55259,-0.37492 1.10518,-0.74985 1.67451,-1.13613 2.87031,-2.0334 4.96819,-3.63867 5.976,-7.09453 0.24136,-2.75461 0.26333,-5.43559 0.21146,-8.20048 0.0121,-1.57449 0.0121,-1.57449 0.0245,-3.18079 0.0186,-3.51743 -0.0129,-7.03262 -0.0442,-10.54994 0.003,-2.52152 0.009,-5.04303 0.0177,-7.56454 0.0133,-6.13802 -0.006,-12.27521 -0.04,-18.41313 -0.0384,-7.15024 -0.0396,-14.30034 -0.0393,-21.45066 -6.9e-4,-12.7602 -0.0348,-25.52008 -0.0879,-38.28016 -0.0514,-12.37635 -0.0798,-24.75245 -0.082,-37.12891 -1.4e-4,-0.76212 -2.9e-4,-1.52424 -4.3e-4,-2.30946 -1.4e-4,-0.76082 -2.8e-4,-1.52164 -4.2e-4,-2.30551 -2.9e-4,-1.53193 -6e-4,-3.06386 -9.1e-4,-4.5958 -1.6e-4,-0.75553 -3.1e-4,-1.51106 -4.7e-4,-2.28949 -0.003,-11.80119 -0.029,-23.60234 -0.0564,-35.40349 -0.01,-4.27405 -0.0157,-8.54809 -0.0193,-12.82215 -0.006,-7.41601 -0.0275,-14.83173 -0.0655,-22.24767 -0.0104,-2.46264 -0.0157,-4.92532 -0.0156,-7.38799 -7.6e-4,-3.36058 -0.02,-6.72057 -0.0439,-10.08105 0.004,-0.97549 0.008,-1.95098 0.012,-2.95603 -0.0747,-6.57768 -0.94774,-11.47633 -5.13741,-16.77372 -0.61271,-0.59176 -1.22542,-1.18352 -1.85669,-1.79321 -0.66709,-0.6542 -1.33418,-1.3084 -2.02148,-1.98243 -0.6903,-0.65677 -1.38059,-1.31355 -2.0918,-1.99023 -1.05284,-1.02577 -1.05284,-1.02577 -2.12695,-2.07227 -1.71973,-1.67293 -3.4481,-3.33574 -5.18555,-4.99023 0.14298,2.47936 0.28933,4.95845 0.4375,7.4375 0.0393,0.68771 0.0786,1.37543 0.11914,2.08398 0.21131,3.4947 0.50119,6.92608 0.9503,10.40206 0.69759,6.21638 0.66964,12.42966 0.69838,18.67875 0.01,1.35525 0.0196,2.7105 0.03,4.06574 0.0269,3.66978 0.048,7.33956 0.068,11.00938 0.0221,3.89558 0.0494,7.79113 0.0761,11.68668 0.0442,6.57955 0.085,13.15911 0.12331,19.73869 0.0388,6.65693 0.0803,13.31382 0.125,19.97071 0.005,0.80986 0.0109,1.61973 0.0165,2.45414 0.0109,1.62999 0.0219,3.25998 0.0329,4.88997 0.0953,14.21314 0.17762,28.42628 0.24418,42.63958 0.0407,8.68246 0.0957,17.36443 0.17968,26.04661 0.0397,4.30231 0.0678,8.60465 0.0928,12.90707 0.0138,1.90376 0.0328,3.8075 0.0578,5.71115 0.18191,14.08946 -0.0607,29.11503 -10.50146,39.84049 -3.21457,3.02831 -6.55089,5.92023 -9.89453,8.80469 -3.01484,2.65306 -5.8079,5.50764 -8.54297,8.44531 -1.3125,1.1875 -1.3125,1.1875 -3.3125,1.1875 0.0553,0.71615 0.1107,1.43231 0.16772,2.17017 1.997,26.24767 2.91053,52.45477 3.06244,78.77636 0.0131,2.02201 0.031,4.044 0.0538,6.06592 0.0299,2.85017 0.0397,5.69974 0.0441,8.55005 0.0184,1.27466 0.0184,1.27466 0.0373,2.57507 -0.0249,6.75726 -1.5777,11.18091 -5.36538,16.86243 -13.79,6.84284 -31.75395,11.20693 -47.04297,7.20312 -3.59882,-1.52641 -6.40775,-3.19725 -8.95703,-6.20312 -0.5,-2.875 -0.5,-2.875 0,-6 4.09241,-5.44266 8.45356,-6.21711 14.8125,-7.3125 0.88365,-0.16822 1.7673,-0.33645 2.67773,-0.50977 2.16732,-0.41003 4.3363,-0.80194 6.50977,-1.17773 0.0277,-2.39592 0.0472,-4.7915 0.0625,-7.1875 0.008,-0.6542 0.0168,-1.3084 0.0254,-1.98242 0.0202,-4.25184 -0.2077,-8.4249 -0.58789,-12.66016 -0.59466,-7.55738 -0.62712,-15.08202 -0.59766,-22.6582 0.002,-1.43874 0.003,-2.87747 0.004,-4.31621 0.004,-3.73991 0.0136,-7.47978 0.0247,-11.21968 0.0103,-3.83504 0.0148,-7.67008 0.0198,-11.50513 0.0106,-7.49025 0.0277,-14.98047 0.0488,-22.4707 -1.00676,0.51949 -2.01351,1.03898 -3.05078,1.57422 -18.23212,9.15083 -37.58334,12.58171 -57.48438,16.50268 -3.72574,0.73776 -7.44669,1.49714 -11.16796,2.25708 -11.83895,2.36951 -23.18689,4.62389 -35.29689,3.66602 0.33,0.66 0.66,1.32 1,2 0.51516,4.77739 0.76432,9.57958 1.0625,14.375 0.0445,0.70306 0.089,1.40613 0.13492,2.13049 0.72001,11.50902 1.15062,22.96359 0.80258,34.49451 -0.0247,0.86174 -0.0493,1.72348 -0.0747,2.61133 -0.0837,2.6305 -0.18676,5.2593 -0.30029,7.88867 -0.0307,0.79632 -0.0614,1.59264 -0.093,2.41309 -0.38521,7.32773 -0.38521,7.32773 -2.53198,10.08691 -11.08545,6.61237 -26.67005,6.15961 -39.1875,6.3125 -0.88478,0.0177 -1.76956,0.0354 -2.68115,0.0537 -5.94263,-0.007 -10.13997,-0.87226 -14.84619,-4.7959 -2.04112,-2.41282 -3.25782,-3.99609 -3.41016,-7.19531 2.35053,-4.96224 6.4145,-6.63655 11.3125,-8.5625 5.24959,-1.81881 10.27794,-2.57239 15.8125,-2.8125 -0.16266,-0.70916 -0.32532,-1.41832 -0.4929,-2.14897 -0.51456,-2.89299 -0.62737,-5.53141 -0.62063,-8.46749 1.2e-4,-1.65114 1.2e-4,-1.65114 2.3e-4,-3.33564 0.005,-1.17725 0.0103,-2.35451 0.0156,-3.56743 0.001,-1.21371 0.003,-2.42742 0.004,-3.6779 0.006,-3.87172 0.0181,-7.74337 0.0309,-11.61507 0.005,-2.62695 0.01,-5.25391 0.0137,-7.88086 0.011,-6.43557 0.0277,-12.8711 0.0488,-19.30664 -0.81826,-0.13187 -1.63652,-0.26373 -2.47957,-0.3996 -1.07642,-0.17589 -2.15284,-0.35179 -3.26189,-0.53302 -1.06575,-0.17311 -2.13151,-0.34623 -3.22956,-0.52459 -16.27505,-2.91649 -27.98724,-10.55953 -38.02871,-23.54278 -1.82157,-3.25865 -2.92079,-6.44239 -4,-10 -0.37016,-1.12378 -0.37016,-1.12378 -0.7478,-2.27026 -5.25521,-16.40004 -5.44462,-34.41982 -6.33032,-51.52662 -0.0434,-0.83188 -0.0868,-1.66376 -0.13151,-2.52085 -0.98531,-19.36346 -1.06083,-38.706 -0.98599,-58.08992 0.0109,-3.57794 0.0104,-7.15584 0.01,-10.73379 6e-4,-17.97415 0.0685,-35.9117 1.18564,-53.85856 -0.79148,-0.13938 -1.58297,-0.27876 -2.39844,-0.42236 -4.37844,-0.97217 -6.1812,-3.97583 -8.60156,-7.57764 -3.86346,-6.83452 -5.87067,-13.77945 -7.42187,-21.44531 -0.32149,-2.47589 -0.32149,-2.47589 -1.57815,-3.55469 -0.25609,-4.53564 -0.18524,-9.083 -0.1875,-13.625 -0.0122,-1.2723 -0.0245,-2.54461 -0.0371,-3.85547 -0.01,-6.27067 0.11017,-11.61264 2.22461,-17.51953 0.5881,-2.47804 1.1712,-4.95727 1.75,-7.4375 2.95069,-12.07911 6.98347,-28.04548 15.81786,-37.1844 2.07643,-3.44795 1.81027,-6.75811 1.74098,-10.66204 -0.003,-0.83515 -0.006,-1.6703 -0.008,-2.53076 -0.008,-1.81751 -0.0231,-3.63499 -0.0444,-5.4524 -0.0339,-2.91208 -0.0495,-5.82377 -0.0606,-8.73603 -0.0275,-6.22829 -0.0797,-12.45626 -0.13292,-18.68437 -0.0654,-8.10802 -0.11916,-16.216 -0.15234,-24.32422 -0.004,-0.98937 -0.009,-1.97875 -0.0129,-2.99811 -0.0583,-17.7407 0.71608,-35.30512 2.10277,-52.99017 0.21032,-2.91255 0.41734,-5.82531 0.6234,-8.73816 1.55775,-20.17668 5.00585,-40.74398 10.3766,-60.26184 0.21769,-0.79551 0.43538,-1.59103 0.65967,-2.41064 3.76128,-13.54528 7.69965,-26.89887 15.97705,-38.44873 1.47636,-2.31819 2.37001,-4.55825 3.30078,-7.14063 2.05619,-5.51743 5.29343,-9.53936 9.0625,-14 0.72188,-0.99 1.44375,-1.98 2.1875,-3 5.52807,-6.539745 13.5129,-11.189638 20.625,-15.812504 5.63209,-3.685381 10.83381,-7.790827 16.02466,-12.063721 2.64981,-2.170812 5.03547,-4.055907 8.073,-5.67456 2.31856,-1.260817 2.31856,-1.260817 2.62109,-3.753907 -0.0155,-1.272304 -0.0155,-1.272304 -0.0312,-2.570312 0.19014,-4.070251 0.28863,-4.866069 3,-8.1875 1.2375,-0.959063 1.2375,-0.959063 2.5,-1.9375 0.33,-0.33 0.66,-0.66 1,-1 6.92094,-0.808769 11.29261,0.07617 17,4 0.66,0.33 1.32,0.66 2,1 0.84563,-0.309375 1.69125,-0.61875 2.5625,-0.9375 4.25403,-1.314882 8.02607,-1.238957 12.4375,-1.0625 0.12117,-0.623906 0.24234,-1.247813 0.36719,-1.890625 0.6323,-2.109375 0.6323,-2.109375 2.7573,-3.859375 3.58482,-1.558619 5.99618,-1.665588 9.875,-1.25 3.5387,1.651393 4.8107,2.716052 7,6 0.079,2.331994 0.088,4.668326 0,7 3.58328,1.002171 3.58328,1.002171 7,0 6.97143,-0.571429 6.97143,-0.571429 10.8125,1.5625 2.67578,2.981585 3.92282,5.64347 5.1875,9.4375 -0.0799,1.266866 -0.0799,1.266866 -0.16138,2.559326 -0.11452,2.519411 -0.11452,2.519411 1.73096,3.891113 0.72598,0.383738 1.45197,0.767476 2.19995,1.162842 0.80164,0.439168 1.60327,0.878335 2.4292,1.330811 0.86254,0.451575 1.72509,0.903149 2.61377,1.368408 1.751,0.967196 3.49971,1.938547 5.24609,2.914062 0.85062,0.47212 1.70124,0.944239 2.57764,1.430665 7.21831,4.100464 15.73208,8.967901 18.36377,17.342777 -0.0632,1.26714 -0.12633,2.53429 -0.19141,3.83984 -0.0996,4.70809 2.02558,7.3248 5.06641,10.72266 1.02005,1.21897 2.03555,2.44175 3.04687,3.66797 0.51627,0.62181 1.03254,1.24362 1.56446,1.88428 20.17048,25.12201 28.9141,53.43027 33.51367,84.88525 0.13793,0.92958 0.27586,1.85915 0.41797,2.81689 4.24414,29.57771 5.20534,59.76536 6.14453,89.59717 0.0218,0.68918 0.0436,1.37835 0.0661,2.08841 0.23445,7.45872 0.44803,14.91765 0.63728,22.37766 0.0349,1.25843 0.0698,2.51687 0.10584,3.81344 0.0649,2.34538 0.12326,4.69095 0.17334,7.03669 -0.11464,12.63352 -0.11464,12.63352 5.06433,23.53927 1.02429,0.87481 2.07183,1.72313 3.14062,2.54297 1.03774,0.85913 2.0742,1.71982 3.10938,2.58203 0.72652,0.58707 0.72652,0.58707 1.46771,1.18599 2.72237,2.30995 5.1641,4.88073 7.67291,7.41948 -0.002,-0.78529 -0.004,-1.57058 -0.007,-2.37967 -0.0204,-7.55475 -0.0354,-15.10949 -0.0451,-22.66426 -0.005,-3.88006 -0.012,-7.7601 -0.0236,-11.64015 -0.0448,-15.38663 -0.0254,-30.74669 0.57154,-46.12451 0.63158,-16.36355 0.65679,-32.71547 0.63427,-49.08912 -0.006,-4.21713 -0.002,-8.4342 0.003,-12.65133 0.1818,-33.03516 0.1818,-33.03516 -2.72365,-65.90018 -0.59993,-5.19374 -0.58808,-10.33169 -0.41015,-15.55078 -1.21688,-0.0619 -2.43375,-0.12375 -3.6875,-0.1875 -4.5337,-0.57672 -6.47108,-2.15925 -9.3125,-5.8125 -2.80716,-4.21074 -3.44422,-7.17532 -2.57031,-12.04687 1.71347,-5.86805 5.39304,-9.04092 10.57031,-11.95313 1.32457,-0.36662 2.65708,-0.70768 4,-1 -0.56268,-0.80051 -0.56268,-0.80051 -1.13672,-1.61719 -6.44865,-9.38872 -11.49325,-17.641961 -10.86328,-29.382814 1.19325,-4.997017 2.82935,-9.760223 4.59668,-14.579681 1.44301,-3.939228 2.81086,-7.904374 4.18066,-11.869538 0.27754,-0.799103 0.55508,-1.598206 0.84104,-2.421524 3.10092,-9.035339 5.49786,-18.230612 7.79348,-27.497909 1.64694,-6.546117 3.55965,-12.587146 6.58814,-18.631348 z m 3,27 c -2.25363,4.507258 -1.65984,10.797621 -1.88721,15.799805 -0.10629,2.07338 -0.26032,4.1383 -0.42139,6.208007 -0.47237,9.389624 1.4456,14.697971 7.3086,21.992188 0.40605,0.738633 0.81211,1.477266 1.23047,2.238281 2.79615,2.783804 5.90653,2.374473 9.76953,2.761719 -2.65744,-11.393446 -5.97336,-22.4312 -9.75,-33.5 -0.51229,-1.516734 -1.02401,-3.03366 -1.53516,-4.550781 -1.23176,-3.651982 -2.47106,-7.301315 -3.71484,-10.949219 -0.33,0 -0.66,0 -1,0 z m -6,3 c -0.26813,1.093125 -0.53625,2.18625 -0.8125,3.3125 -2.7148,10.797632 -5.95207,21.329836 -9.5957,31.851562 -0.33581,0.97711 -0.67161,1.954219 -1.01758,2.960938 -0.30334,0.868828 -0.60667,1.737656 -0.91919,2.632812 -0.79524,2.332809 -0.79524,2.332809 -0.65503,5.242188 1.65,0 3.3,0 5,0 11.29374,-12.760131 9.20698,-30.013871 9,-46 -0.33,0 -0.66,0 -1,0 z m -149,11 c -0.99,0.99 -1.98,1.98 -3,3 5.445,1.485 5.445,1.485 11,3 -0.33,-1.65 -0.66,-3.3 -1,-5 -3.35458,-0.765228 -3.35458,-0.765228 -7,-1 z m -39,6 c -1.42684,1.199259 -1.42684,1.199259 -1.125,4.6875 0.0381,3.52083 0.43319,6.853435 1.125,10.3125 3.93076,-0.574527 3.93076,-0.574527 7,-3 -0.63937,-0.86625 -1.27875,-1.7325 -1.9375,-2.625 -2.03798,-3.334881 -2.69683,-5.535475 -3.0625,-9.375 -0.66,0 -1.32,0 -2,0 z m 6,0 c 0.55313,4.029928 1.15581,8.020229 2,12 1.98,-1.32 3.96,-2.64 6,-4 -0.34022,-3.175383 -1.02467,-4.022769 -3.4375,-6.25 -2.32059,-1.937987 -2.32059,-1.937987 -4.5625,-1.75 z m 14,4 c -0.165,1.19625 -0.33,2.3925 -0.5,3.625 -0.63767,3.481657 -1.49212,4.368506 -4.29687,6.679687 -10.12526,6.680913 -10.12526,6.680913 -16.20313,5.695313 -2.875,-2 -2.875,-2 -5,-4 -0.75338,0.565455 -0.75338,0.565455 -1.52197,1.142334 -16.87143,12.631461 -16.87143,12.631461 -25.04053,17.732666 -10.60391,6.673794 -20.83502,14.296934 -27.4375,25.125004 0.33,0.66 0.66,1.32 1,2 0.89139,-0.92619 0.89139,-0.92619 1.80078,-1.87109 6.06784,-6.19996 12.37009,-11.77051 19.19922,-17.12891 0.71156,-0.57879 1.42313,-1.15758 2.15625,-1.75391 5.17228,-4.094719 10.85168,-7.973907 17.59375,-8.433594 2.51729,1.328571 3.15595,2.344276 4.6875,4.6875 1.75818,2.645434 2.27327,3.381674 5.3125,4.625004 7.76685,-0.29873 14.22974,-4.0734 21.01001,-7.562992 10.98578,-5.568035 21.49885,-6.727519 33.67749,-6.624512 1.01771,0.0045 2.03543,0.009 3.08398,0.01367 2.49291,0.0117 4.98568,0.0281 7.47852,0.04883 -0.96293,-1.133086 -0.96293,-1.133086 -1.94531,-2.289063 -2.56413,-3.383084 -2.90913,-5.489782 -3.05469,-9.710937 0.48183,-2.447298 1.17868,-4.632664 2,-7 -16.76578,-8.201059 -16.76578,-8.201059 -34,-5 z m 44,4 c 0.30618,3.674209 0.75772,4.781355 3.5625,7.3125 0.80437,0.556875 1.60875,1.11375 2.4375,1.6875 -0.47773,-4.299578 -1.70187,-6.2172 -5,-9 -0.33,0 -0.66,0 -1,0 z m -5.5625,3.125 c -1.92776,2.51447 -2.09255,4.77046 -2.4375,7.875 3.24983,-1.08785 3.24983,-1.08785 6,-3 0.0408,-1.999584 0.0425,-4.000453 0,-6 -2.05038,-0.194768 -2.05038,-0.194768 -3.5625,1.125 z m 6.5625,4.875 c -3.42579,3.175396 -3.42579,3.175396 -6,7 5.03478,-0.23414 5.03478,-0.23414 8.9375,-3.0625 0.35062,-0.639375 0.70125,-1.27875 1.0625,-1.9375 -0.99,0 -1.98,0 -3,0 -0.33,-0.66 -0.66,-1.32 -1,-2 z m 125,2 c -1.22641,1.976377 -2.40623,3.981784 -3.5625,6 -1.13438,1.98 -2.26875,3.96 -3.4375,6 2.31,3.96 4.62,7.92 7,12.000004 1.88856,-2.832854 3.50546,-5.694877 5.125,-8.687504 0.53883,-0.993867 1.07765,-1.987734 1.63281,-3.011719 0.61488,-1.138886 0.61488,-1.138886 1.24219,-2.300781 -1.14178,-1.669445 -2.28853,-3.335495 -3.4375,-5 -0.63809,-0.928125 -1.27617,-1.85625 -1.9336,-2.8125 -0.53753,-0.721875 -1.07507,-1.44375 -1.6289,-2.1875 -0.33,0 -0.66,0 -1,0 z m -120,6.9375 c -4.16853,2.865862 -8.04248,2.869975 -13,3.0625 2.96626,1.643772 5.98944,2.662687 9.22754,3.647461 11.0078,3.384061 18.47109,8.868213 27.09668,16.497073 2.97392,2.06221 5.10546,2.53659 8.67578,2.85547 0,-0.66 0,-1.32 0,-2 0.66,0 1.32,0 2,0 -0.67658,-5.16658 -2.45598,-6.81853 -6.35156,-10.039067 -4.30519,-3.187613 -8.81693,-6.029964 -13.35547,-8.871093 -2.5904,-1.643964 -5.07917,-3.329032 -7.54297,-5.152344 -3.57296,-2.609345 -3.57296,-2.609345 -6.75,0 z m 130,7.0625 c -0.39832,0.663867 -0.79664,1.327734 -1.20703,2.011719 -4.79297,7.988285 -4.79297,7.988285 -6.48047,10.425785 -1.61889,3.16068 -1.61632,5.34662 -1.5,8.875 0.0271,1.06863 0.0541,2.13727 0.082,3.23828 0.0348,0.80824 0.0696,1.61649 0.10547,2.44922 3.46936,0 3.79281,-0.31563 6.1875,-2.625 5.7613,-5.98243 10.8026,-14.3354 12.8125,-22.375004 -3.3,-0.66 -6.6,-1.32 -10,-2 z m -28,1 c 5.95187,12.641234 5.95187,12.641234 14,24.000004 0.33,0 0.66,0 1,0 0.83336,-9.7071 -0.54602,-15.9002 -6,-24.000004 -2.97,0 -5.94,0 -9,0 z M 364.61192,99.95723 c -2.29995,1.15671 -4.55305,2.36437 -6.8125,3.60156 -3.54688,1.6836 -3.54688,1.6836 -6.01099,2.04517 -2.9861,0.48472 -4.9661,1.01801 -7.53589,2.63843 -2.65981,4.66007 -3.87712,9.65414 -5.1875,14.8125 -0.41147,1.49956 -0.82582,2.99833 -1.24292,4.49634 -1.05031,3.82351 -2.04305,7.65926 -3.01428,11.50354 -0.51976,2.04762 -1.05264,4.09122 -1.59143,6.13391 -8.42008,32.21632 -11.92204,64.89851 -13.96387,98.05371 -0.072,1.15274 -0.14405,2.30549 -0.21826,3.49316 -4.4872,76.53238 1.43322,155.0799 9.66748,231.18262 0.51989,4.83693 1.03703,9.67414 1.55078,14.51172 0.12892,1.21313 0.25783,2.42626 0.39066,3.67615 2.69332,25.74588 4.04493,51.53045 5.20494,77.38465 0.11018,2.45497 0.22214,4.90986 0.33427,7.36475 0.13667,2.99553 0.26491,5.99123 0.38684,8.9874 0.31532,7.3412 0.83171,14.63657 1.612,21.94398 0.0752,0.727 0.15044,1.45399 0.22794,2.20302 0.55469,4.88749 1.56647,9.50172 2.84335,14.25255 5.99447,-1.30456 11.94894,-2.71562 17.89063,-4.24219 1.68551,-0.4294 3.37114,-0.85834 5.05688,-1.28686 0.86666,-0.22034 1.73333,-0.44068 2.62625,-0.6677 19.96568,-5.06 39.67378,-9.40222 60.14523,-11.85379 0.9216,-0.11094 1.8432,-0.22188 2.79273,-0.33618 0.81944,-0.095 1.63888,-0.18997 2.48315,-0.28784 2.07018,-0.23374 2.07018,-0.23374 4.00513,-1.32544 -0.16113,-1.01449 -0.32227,-2.02898 -0.48828,-3.07422 -1.52256,-11.68071 -0.32885,-23.50172 0.63818,-35.18432 0.67897,-8.25335 1.20511,-16.5081 1.66971,-24.77549 0.63316,-11.23026 1.47121,-22.39888 2.61789,-33.59097 1.48986,-14.87101 2.36959,-29.76593 3.1875,-44.6875 0.0623,-1.11232 0.1247,-2.22464 0.18893,-3.37067 1.88917,-34.00372 2.35278,-67.9533 2.31644,-102.00238 -0.006,-5.34703 -0.002,-10.69401 0.003,-16.04104 0.0191,-20.89499 -0.069,-41.78204 -0.56349,-62.67185 -0.0275,-1.22014 -0.0275,-1.22014 -0.0556,-2.46494 C 444.4334,223.05599 441.28405,140.49413 401.26814,96.140823 392.98773,88.341841 373.46335,95.638 364.61189,99.95723 Z m 41.64062,-4.714844 c 0.35191,0.449883 0.70383,0.899766 1.06641,1.363281 50.77327,66.151083 44.12517,172.587313 44.11889,251.151863 -8e-5,5.29463 0.007,10.58917 0.0205,15.88379 0.14223,55.92229 -1.79281,111.5827 -6.9584,167.27557 -1.14953,12.40769 -1.94508,24.82236 -2.60117,37.26544 -0.34107,6.39646 -0.78813,12.71154 -1.64624,19.06006 -0.12994,1.97665 -0.2174,3.95685 -0.25,5.9375 -0.0387,1.40572 -0.0387,1.40572 -0.0781,2.83984 0.29916,2.93817 0.89514,5.15375 1.84864,7.92408 0.27547,0.80623 0.55095,1.61246 0.83478,2.44313 0.3191,0.91845 0.3191,0.91845 0.64468,1.85545 1.22928,-0.0157 2.45856,-0.0314 3.7251,-0.0476 4.62574,-0.0549 9.25146,-0.089 13.87744,-0.11718 1.98996,-0.0149 3.97988,-0.0353 5.96972,-0.0615 13.15642,-0.16876 25.15255,0.0687 37.61881,4.78523 1.07237,0.4049 1.07237,0.4049 2.16641,0.81798 0.54203,0.20563 1.08406,0.41125 1.64252,0.62311 0.1868,-28.18953 0.32792,-56.37896 0.4145,-84.56899 0.0413,-13.08887 0.0975,-26.17735 0.18901,-39.26597 0.0797,-11.40679 0.13134,-22.8133 0.1492,-34.22036 0.0104,-6.04128 0.035,-12.08176 0.0931,-18.12278 0.0543,-5.68501 0.0711,-11.3689 0.059,-17.05414 0.002,-2.08742 0.0181,-4.17487 0.0488,-6.26206 0.0398,-2.85006 0.0302,-5.69586 0.008,-8.54601 0.0349,-1.24029 0.0349,-1.24029 0.0706,-2.50564 -0.0743,-3.57939 -0.24385,-5.62615 -2.77253,-8.28017 -2.9507,-2.25291 -6.02724,-4.04288 -9.26012,-5.86138 -0.66,-0.43313 -1.32,-0.86625 -2,-1.3125 0,-0.99 0,-1.98 0,-3 14.66857,1.89272 24.17526,14.91931 34,25 0.99,-0.66 1.98,-1.32 3,-2 0,-1.13437 0,-2.26875 0,-3.4375 0,-1.17563 0,-2.35125 0,-3.5625 0.48211,-0.4473 0.96421,-0.89461 1.46093,-1.35547 2.27248,-2.4282 2.13998,-4.23543 2.16407,-7.51953 -0.55177,-5.88548 -2.47386,-8.55846 -6.7251,-12.34033 -2.60486,-2.13502 -5.26793,-4.18328 -7.9541,-6.2146 -2.64051,-2.13063 -4.94728,-4.52701 -7.31153,-6.95484 -2.25208,-2.22584 -4.69106,-4.08113 -7.25927,-5.92773 -1.34965,-0.9842 -1.34965,-0.9842 -2.72657,-1.98828 -2.50019,-1.60415 -4.85708,-2.70667 -7.64843,-3.69926 0,-0.99 0,-1.98 0,-3 2.31,-0.33 4.62,-0.66 7,-1 3.82644,-124.91165 3.82644,-124.91165 -48,-233 -1.29938,-0.0206 -2.59875,-0.0413 -3.9375,-0.0625 -7.20346,-0.72035 -12.00566,-5.89335 -16.94531,-10.8125 -7.526,-7.29795 -17.80804,-10.983966 -28.11719,-12.125004 z m -102,23.000004 c -2.61275,2.644 -5.20382,5.30709 -7.75391,8.01172 -2.24609,1.98828 -2.24609,1.98828 -5.30468,3.375 -9.13044,5.00779 -12.92145,23.09881 -15.94141,32.61328 -0.32847,1.02722 -0.32847,1.02722 -0.66357,2.0752 -6.37261,20.32867 -9.37796,41.36031 -11.58643,62.4873 -0.12449,1.16334 -0.12449,1.16334 -0.2515,2.35019 -2.62052,24.86685 -2.62674,49.81017 -2.51253,74.78268 0.0238,5.27984 0.0366,10.55968 0.0477,15.83956 0.0328,15.00004 0.0733,30.00003 0.13773,44.99998 0.0464,11.02871 0.0763,22.05738 0.0864,33.08618 9.2e-4,0.91166 0.002,1.82332 0.003,2.7626 0.0232,32.29922 -0.81142,64.52856 -2.19977,96.79684 -0.13751,3.2172 -0.27392,6.43444 -0.40896,9.65175 -0.0324,0.7716 -0.0648,1.54321 -0.0983,2.3382 -0.92953,22.54357 -1.00241,45.11241 0.3214,67.64202 0.0932,1.67616 0.18578,3.35235 0.27783,5.02856 0.14109,2.55661 0.28339,5.11312 0.4299,7.66942 0.32556,5.69036 0.60141,11.38148 0.85477,17.07546 1.19638,31.4665 1.19638,31.4665 12.5625,60.41406 3.12226,0.34268 3.12226,0.34268 5.125,-2 0.66516,-0.69416 0.66516,-0.69416 1.34375,-1.40234 15.21296,-15.87288 36.07506,-26.16121 56.53108,-33.59766 -0.12423,-1.3959 -0.24949,-2.79171 -0.375,-4.1875 -0.0916,-1.03069 -0.18321,-2.06137 -0.27759,-3.12329 -0.24223,-2.57233 -0.50295,-5.13702 -0.78662,-7.70459 -1.19133,-11.11161 -1.88206,-22.2228 -2.38501,-33.38306 -0.0337,-0.74301 -0.0675,-1.48602 -0.10227,-2.25154 -0.14166,-3.11969 -0.28284,-6.2394 -0.4236,-9.35913 -1.305,-28.7929 -3.17667,-57.44556 -6.14991,-86.11589 -0.0764,-0.73892 -0.1528,-1.47784 -0.23152,-2.23915 -0.60343,-5.83487 -1.20907,-11.66951 -1.81937,-17.50367 -2.158,-20.63881 -3.83832,-41.30648 -5.23622,-62.01005 -0.21559,-3.1618 -0.44032,-6.32286 -0.66601,-9.48395 -2.20722,-31.41139 -2.85686,-62.76111 -2.91524,-94.23949 -0.007,-2.83615 -0.0179,-5.67224 -0.0304,-8.50837 -0.0774,-20.20656 0.32197,-40.3015 1.77771,-60.46063 0.0918,-1.27969 0.0918,-1.27969 0.18539,-2.58522 2.97361,-40.50087 9.8885,-81.1725 25.43566,-118.84447 -1.17176,-1.15049 -1.17176,-1.15049 -2.36719,-2.32422 -2.63281,-2.67578 -2.63281,-2.67578 -4.75781,-5.48828 -0.61875,-0.721879 -1.2375,-1.443754 -1.875,-2.187504 -10.73235,0 -20.88468,12.967674 -28,20.000004 z m 250,7 c -1.98,1.32 -3.96,2.64 -6,4 0.33,0.66 0.66,1.32 1,2 0.55687,-0.47437 1.11375,-0.94875 1.6875,-1.4375 2.49596,-1.68646 4.35712,-2.15203 7.3125,-2.5625 -1.32,-0.66 -2.64,-1.32 -4,-2 z m -25,2 c 4,1 4,1 4,1 z m 6,2 c 1.07401,2.91517 1.7781,4.7781 4,7 -0.65585,-3.60992 -0.65585,-3.60992 -2,-7 -0.66,0 -1.32,0 -2,0 z m 20,1 c -0.33,0.66 -0.66,1.32 -1,2 0.66,0 1.32,0 2,0 -0.33,-0.66 -0.66,-1.32 -1,-2 z m 5,1 c 1,2 1,2 1,2 z m -31,0 c -0.66,0.66 -1.32,1.32 -2,2 0.99,0.99 1.98,1.98 3,3 0,-1.65 0,-3.3 0,-5 -0.33,0 -0.66,0 -1,0 z m 17,1 c 1,2 1,2 1,2 z m 7,0 c -1.485,1.98 -1.485,1.98 -3,4 0.95752,2.47359 1.49496,3.73065 3.875,5 2.31603,0.20877 2.31603,0.20877 4.4375,-1.6875 1.9626,-2.14308 1.9626,-2.14308 1.4375,-4.5625 -0.2475,-0.5775 -0.495,-1.155 -0.75,-1.75 -0.61875,0.20625 -1.2375,0.4125 -1.875,0.625 -0.70125,0.12375 -1.4025,0.2475 -2.125,0.375 -0.66,-0.66 -1.32,-1.32 -2,-2 z m -30,2 c 0.1813,3.43793 0.1813,3.43793 1,7 1.66667,1.66667 1.66667,1.66667 4,2 2.68993,-0.30378 2.68993,-0.30378 5,-1 0,-1.65 0,-3.3 0,-5 -0.33,0.66 -0.66,1.32 -1,2 -3.77546,-1.09069 -6.47044,-1.90831 -9,-5 z m 17,3 c 0.0206,1.25813 0.0412,2.51625 0.0625,3.8125 0.0464,2.82801 -0.14557,4.43671 -1.0625,7.1875 -0.66,0 -1.32,0 -2,0 -0.27212,5.53312 0.0342,10.57688 1.02504,16.03593 1.57757,8.70736 2.30721,17.25662 2.5648,26.10079 0.0395,1.25514 0.079,2.51029 0.11972,3.80347 0.40723,14.138 0.44581,28.27687 0.41901,42.41963 -0.004,2.18243 -0.005,4.36485 -0.006,6.54728 -0.0119,19.91865 -0.24592,39.82073 -0.76196,59.73328 -0.63526,24.7294 -0.58419,49.44364 0.0771,74.17212 0.0196,0.75331 0.0391,1.50661 0.0593,2.28275 0.21484,8.00077 0.52582,15.9547 1.50324,23.90475 0.33,0 0.66,0 1,0 2.04808,-28.35418 3.12125,-56.63918 2.98828,-85.06802 -0.053,-11.60732 0.0503,-23.20202 0.30078,-34.80698 0.81285,-38.39717 0.40355,-76.54212 -1.85547,-114.90625 -0.40709,-6.9538 -0.55777,-13.87861 -0.49609,-20.84375 0.005,-1.01578 0.009,-2.03156 0.0137,-3.07813 0.0115,-2.43236 0.0277,-4.86458 0.0488,-7.29687 -1.32,0 -2.64,0 -4,0 z m -288,238 c -4.16181,9.15118 -7.56792,18.1982 -9.875,28 -0.20262,0.85876 -0.40525,1.71751 -0.61401,2.60229 -4.40632,19.65059 -4.25532,40.93253 4.48901,59.39771 0.33,0 0.66,0 1,0 0.33,-2.31 0.66,-4.62 1,-7 1.98,-0.495 1.98,-0.495 4,-1 0.7826,-10.67678 1.13911,-21.29304 1.09766,-32 -0.002,-1.45687 -0.003,-2.91374 -0.004,-4.37061 -0.004,-3.77439 -0.0135,-7.54874 -0.0247,-11.32312 -0.0104,-3.87552 -0.0148,-7.75105 -0.0198,-11.62658 -0.0106,-7.55992 -0.0276,-15.1198 -0.0488,-22.67969 -0.33,0 -0.66,0 -1,0 z m 296,29 c 0,0.99 0,1.98 0,3 -5.445,1.485 -5.445,1.485 -11,3 0.33,0.66 0.66,1.32 1,2 2.12577,0.46651 2.12577,0.46651 4.5625,0.625 0.82629,0.0748 1.65258,0.14953 2.5039,0.22656 0.63809,0.049 1.27618,0.098 1.9336,0.14844 -0.33,0.99 -0.66,1.98 -1,3 -2.97,0 -5.94,0 -9,0 0.90901,2.32371 0.90901,2.32371 3.9375,3.4375 3.0625,1.5625 3.0625,1.5625 5.0625,4.5625 2.47192,-2.07322 3.84579,-3.53737 4.875,-6.625 0.17202,-4.64458 -0.79874,-8.87427 -1.875,-13.375 -0.33,0 -0.66,0 -1,0 z m -11,18 c 1.75244,1.64836 1.75244,1.64836 4,3 2.208,-0.21717 2.208,-0.21717 4,-1 -2.906,-1.25665 -4.79605,-2 -8,-2 z m 2,8 c 0.002,1.24645 0.004,2.4929 0.006,3.77712 0.0434,29.62085 0.0763,59.24169 0.0965,88.86257 0.002,3.64973 0.005,7.29945 0.008,10.94918 5.3e-4,0.72656 0.001,1.45312 0.002,2.2017 0.009,11.74805 0.0245,23.49608 0.0429,35.24412 0.0187,12.06407 0.0298,24.12812 0.0339,36.19221 0.002,6.77219 0.008,13.54435 0.0233,20.31653 0.0136,6.37913 0.0177,12.75819 0.0147,19.13733 5.5e-4,2.33639 0.005,4.67279 0.0122,7.00917 0.0909,29.03137 0.0909,29.03137 -3.47434,34.04977 -1.38907,1.3853 -1.38907,1.3853 -3.76407,3.2603 0,0.66 0,1.32 0,2 -0.99,0.33 -1.98,0.66 -3,1 -2.2389,3.99803 -3.01436,6.13861 -2.9375,10.75 0.65733,3.31717 0.65733,3.31717 3,5.1875 0.63937,0.35063 1.27875,0.70125 1.9375,1.0625 0.66,-0.33 1.32,-0.66 2,-1 -0.33,-0.66 -0.66,-1.32 -1,-2 -0.59536,-5.28169 -0.9185,-9.56485 2,-14.125 3.65948,-2.28717 6.72657,-3.28274 11,-2.875 3.76816,1.19204 7.03703,2.48542 9.20703,5.89844 1.25477,3.32545 1.26813,6.62392 0.79297,10.10156 -1.5,3 -1.5,3 -3,5 2.47407,-0.32988 3.66378,-0.57972 5.25,-2.5625 1.61119,-5.23639 1.26015,-9.12885 -0.6875,-14.125 -2.36195,-3.75687 -5.69486,-5.33965 -9.63672,-7.17188 -1.92578,-1.14062 -1.92578,-1.14062 -2.92578,-4.14062 -0.0895,-1.43791 -0.12376,-2.87964 -0.12305,-4.32034 -0.002,-0.88727 -0.004,-1.77454 -0.006,-2.6887 0.003,-0.97567 0.006,-1.95134 0.009,-2.95658 -0.001,-1.55355 -0.001,-1.55355 -0.003,-3.13849 -0.002,-3.48704 0.004,-6.97404 0.009,-10.46108 2.8e-4,-2.49302 1.2e-4,-4.98604 -4.4e-4,-7.47906 -2.3e-4,-5.37584 0.003,-10.75167 0.008,-16.12751 0.008,-7.77259 0.0107,-15.54518 0.012,-23.31777 0.002,-12.61002 0.009,-25.22003 0.0183,-37.83005 0.009,-12.25065 0.0163,-24.5013 0.0205,-36.75195 3.9e-4,-1.13239 3.9e-4,-1.13239 7.9e-4,-2.28764 0.001,-3.78716 0.003,-7.57432 0.004,-11.36148 0.0104,-31.42645 0.0281,-62.8529 0.0503,-94.27935 -1.65,-0.33 -3.3,-0.66 -5,-1 z m -162,198 c -0.80724,0.19374 -1.61447,0.38748 -2.44617,0.5871 -6.04743,1.45781 -12.08387,2.95694 -18.11633,4.4754 -0.80908,0.20152 -1.61816,0.40303 -2.45175,0.61066 -14.84273,3.71764 -29.07133,8.32037 -42.61075,15.57684 -0.88389,0.4689 -1.76779,0.93779 -2.67847,1.4209 -10.83951,5.8707 -20.69269,12.8845 -29.69653,21.3291 7.2349,8.17179 19.77909,9.86596 30,12 0.66,-3.96 1.32,-7.92 2,-12 0.86883,-0.28488 1.73766,-0.56977 2.63281,-0.86328 2.11101,-0.71265 4.21229,-1.4556 6.29688,-2.24219 6.98448,-2.56592 12.16372,-4.15085 19.21094,-0.91016 2.98367,3.23441 2.79296,6.94145 3.10937,11.20313 0.0773,0.84498 0.15469,1.68996 0.23438,2.56055 0.18825,2.08257 0.35411,4.16714 0.51562,6.25195 15.3622,-2.63529 30.68316,-5.4627 45.97314,-8.48828 1.69703,-0.33537 3.39445,-0.66878 5.09229,-1 24.04759,-4.63404 24.04759,-4.63404 46.99707,-12.94922 0.85143,-0.35643 1.70285,-0.71285 2.58008,-1.08008 4.88455,-2.16225 4.88455,-2.16225 7.86523,-6.44726 0.24363,-1.50241 0.24363,-1.50241 0.49219,-3.03516 0.22623,-1.30324 0.22623,-1.30324 0.45703,-2.63281 0.23755,-1.66549 0.46669,-3.33221 0.6875,-5 1.20384,-3.33117 2.91427,-4.44724 5.85547,-6.36719 7.37593,-3.13211 14.97661,-4.99275 23,-4 0.66,0.33 1.32,0.66 2,1 0.41406,2.94141 0.41406,2.94141 0.625,6.5625 0.11215,1.79631 0.11215,1.79631 0.22656,3.62891 0.049,0.92683 0.098,1.85367 0.14844,2.80859 1.64852,-1.40811 3.29523,-2.81837 4.93359,-4.23828 1.34609,-1.14761 2.71278,-2.27162 4.10156,-3.36719 5.30647,-4.30447 9.18342,-9.1047 11.96485,-15.39453 0,-1.32 0,-2.64 0,-4 -1.4719,-0.80509 -2.95307,-1.59325 -4.4375,-2.375 -0.82371,-0.44086 -1.64742,-0.88172 -2.4961,-1.33594 -6.85921,-2.88349 -13.77652,-3.60226 -21.15625,-3.625 -0.84918,-0.008 -1.69837,-0.0168 -2.57328,-0.0255 -2.75832,-0.0196 -5.51599,-0.0197 -8.27437,-0.0135 -0.95179,8.8e-4 -1.90358,0.002 -2.88422,0.003 -29.78338,0.0896 -58.27229,4.43033 -87.17828,11.37194 z m 101,13 c -0.10848,9.11182 -0.0239,18.19559 0.35489,27.30113 0.63802,15.3892 0.80023,30.758 0.77548,46.15908 -0.005,3.35425 -0.002,6.70835 0.004,10.06259 0.005,3.28276 10e-4,6.56552 -10e-4,9.84829 0.002,1.17937 0.004,2.35874 0.006,3.57384 -0.0747,26.79276 -0.0747,26.79276 -6.7366,33.71523 -1.65237,1.40234 -1.65237,1.40234 -4.40237,3.33984 0.99,0.33 1.98,0.66 3,1 2.28352,-1.09349 2.28352,-1.09349 4.5625,-2.75 1.17756,-0.79664 1.17756,-0.79664 2.3789,-1.60938 2.45027,-1.95277 3.9283,-3.56057 4.31257,-6.74571 0.002,-0.8186 0.003,-1.6372 0.005,-2.4806 0.009,-1.41592 0.009,-1.41592 0.0189,-2.86043 -0.004,-1.03743 -0.008,-2.07486 -0.012,-3.14372 0.003,-1.09983 0.005,-2.19966 0.008,-3.33281 0.004,-3.67173 -0.009,-7.34316 -0.0236,-11.01485 -0.002,-1.25617 -0.003,-2.51234 -0.005,-3.80658 -0.0531,-32.43363 -1.12153,-64.84458 -2.24459,-97.25592 -0.66,0 -1.32,0 -2,0 z m -12,2.8125 c -1.0725,0.33645 -2.145,0.67289 -3.25,1.01953 -3.02689,0.98856 -3.02689,0.98856 -4.75,4.16797 -0.89103,4.08646 -1.15226,8.05127 -1.23706,12.2251 -0.0263,1.22038 -0.0527,2.44076 -0.0798,3.69812 -0.0231,1.31698 -0.0461,2.63396 -0.0699,3.99084 -0.0264,1.39751 -0.0529,2.79501 -0.0794,4.19251 -0.0685,3.73494 -0.12865,7.46998 -0.18571,11.20511 -0.0356,2.31132 -0.0735,4.62259 -0.11163,6.93386 -0.33944,21.17663 -0.19162,42.23473 1.17679,63.3819 0.052,0.84156 0.10397,1.68311 0.15753,2.55017 0.0978,1.54197 0.20552,3.08336 0.32532,4.62378 0.11298,1.72953 0.11883,3.46546 0.10382,5.19861 -2.44798,2.44799 -3.55542,2.40669 -6.9375,2.81641 -0.97711,0.12439 -1.95422,0.24879 -2.96093,0.37695 -1.02352,0.12182 -2.04704,0.24363 -3.10157,0.36914 -2.02121,0.2482 -4.04207,0.49935 -6.0625,0.75391 -0.89848,0.10771 -1.79695,0.21543 -2.72266,0.32641 -2.24833,0.2493 -2.24833,0.2493 -4.21484,1.35718 0,0.66 0,1.32 0,2 4.44847,-0.21283 8.89558,-0.4433 13.34229,-0.6897 1.51082,-0.0813 3.0219,-0.15784 4.5332,-0.22949 2.18039,-0.1042 4.35927,-0.22567 6.53858,-0.35034 1.9638,-0.10212 1.9638,-0.10212 3.96728,-0.2063 3.80624,-0.55134 6.35044,-1.52315 9.61865,-3.52417 1.53074,-2.31934 1.53074,-2.31934 2.3125,-5.0625 0.30551,-0.87785 0.61102,-1.7557 0.92578,-2.66016 2.21243,-9.5191 1.90983,-19.31134 1.89454,-29.02734 6.7e-4,-1.54093 0.002,-3.08187 0.003,-4.6228 0.002,-3.23431 -6.5e-4,-6.46858 -0.005,-9.70288 -0.006,-4.03319 -0.002,-8.06631 0.003,-12.09949 0.0263,-21.62544 -0.36309,-43.21316 -1.13392,-64.82483 -2.87498,0 -5.26696,0.93543 -8,1.8125 z m -143.125,28.625 c -0.88945,0.26684 -1.77891,0.53367 -2.69531,0.80859 -2.13063,0.55915 -2.13063,0.55915 -3.17969,1.75391 -0.15939,1.81247 -0.25155,3.63091 -0.31641,5.44922 -0.0421,1.14638 -0.0841,2.29276 -0.12744,3.47388 -0.0392,1.24225 -0.0783,2.4845 -0.11865,3.7644 -0.0626,1.91462 -0.0626,1.91462 -0.12646,3.86792 -0.42558,13.89374 -0.52304,27.73489 -0.0493,41.62817 0.024,0.70772 0.0481,1.41544 0.0728,2.14461 0.12197,3.53147 0.25298,7.06232 0.3974,10.59294 0.0485,1.27899 0.097,2.55799 0.14698,3.87573 0.0471,1.14824 0.0943,2.29647 0.14282,3.4795 -0.0217,2.72363 -0.0217,2.72363 -1.02174,4.72363 -3.15698,1.05233 -5.6841,1.20761 -9,1.375 -6.19005,0.43719 -12.20414,1.31329 -18,3.625 -0.495,0.99 -0.495,0.99 -1,2 5.05459,-0.37997 10.10817,-0.77088 15.16113,-1.17188 1.71852,-0.13483 3.43727,-0.26669 5.15625,-0.3955 2.47302,-0.18584 4.94498,-0.3824 7.417,-0.58106 0.76681,-0.0553 1.53362,-0.1106 2.32366,-0.16757 5.32233,-0.34021 5.32233,-0.34021 9.94196,-2.68399 2.30201,-4.03241 2.34021,-8.15694 2.41406,-12.69141 0.0194,-0.76227 0.0388,-1.52454 0.0588,-2.30992 0.0607,-2.52027 0.1069,-5.04057 0.15211,-7.56117 0.0381,-1.76042 0.0764,-3.52084 0.11499,-5.28125 0.41612,-20.38281 0.35504,-40.77046 0.26001,-61.15625 -3.06571,0 -5.20748,0.54863 -8.125,1.4375 z m 11.125,-0.4375 c 0.10828,1.11568 0.10828,1.11568 0.21875,2.25391 0.62946,7.40488 0.86858,14.74356 0.85547,22.17187 -10e-4,0.99313 -0.003,1.98627 -0.004,3.00949 -0.0401,10.65874 -0.27346,21.30828 -0.6497,31.96024 -0.0729,2.18491 -0.13538,4.37018 -0.18848,6.55566 -0.0789,3.21799 -0.18891,6.43359 -0.30591,9.65039 -0.0269,1.46079 -0.0269,1.46079 -0.0544,2.95108 -0.19665,4.49398 -0.37947,6.78463 -3.11677,10.47226 -4.38387,3.14327 -7.93708,4.19251 -13.28198,4.57276 -1.03963,0.0793 -2.07926,0.15855 -3.15039,0.24023 -1.07573,0.0741 -2.15145,0.14824 -3.25977,0.22461 -9.07485,0.60233 -9.07485,0.60233 -18.0625,1.9375 3.77978,2.53284 7.41328,2.09473 11.75,1.75 0.74355,-0.0523 1.48709,-0.10458 2.25317,-0.15845 14.83085,-0.79167 14.83085,-0.79167 28.99683,-4.59155 2.23917,-3.35876 2.25236,-4.46249 2.25879,-8.38818 0.006,-1.10742 0.0126,-2.21483 0.0191,-3.35581 -0.004,-1.20597 -0.008,-2.41193 -0.0123,-3.65445 0.002,-1.25874 0.004,-2.51748 0.006,-3.81436 10e-4,-2.68523 -10e-4,-5.37009 -0.0107,-8.05527 -0.0133,-4.00057 -2.3e-4,-8.00088 0.0127,-12.00146 0.008,-13.4153 -0.29605,-26.75989 -1.16406,-40.14453 -0.0775,-1.25244 -0.15497,-2.50487 -0.23481,-3.79526 -0.0827,-1.14216 -0.16536,-2.28432 -0.25055,-3.46109 -0.0717,-1.00842 -0.14345,-2.01684 -0.21734,-3.05582 -0.13421,-0.75034 -0.26841,-1.50069 -0.40668,-2.27377 -0.66,-0.33 -1.32,-0.66 -2,-1 z m 201,29 c 0.32157,2.97454 0.6214,4.59335 2.6875,6.8125 3.04796,1.56517 4.92735,1.68117 8.3125,1.1875 2.83171,-2.01201 3.84988,-3.12072 4.4375,-6.5625 -0.26802,-2.4429 -0.26802,-2.4429 -1.625,-4.1875 -5.7951,-3.99662 -9.01759,-1.24346 -13.8125,2.75 z m 4,13 c -0.14309,1.14662 -0.14309,1.14662 -0.28906,2.31641 -0.81897,3.09136 -1.55449,3.77858 -4.08594,5.62109 -3.92872,3.17847 -6.16887,6.0007 -6.9375,11.16016 -0.3157,5.7517 0.99613,10.18904 4.3125,14.90234 4.61941,4.28945 7.54175,5.32108 13.69531,5.20312 6.49706,-0.57262 9.87687,-4.59189 13.88672,-9.26562 3.06877,-4.19314 3.12438,-8.95202 2.41797,-13.9375 -1.25858,-3.0138 -3.01628,-5.42066 -5,-8 -0.74444,-1.12729 -0.74444,-1.12729 -1.50391,-2.27734 -2.50422,-3.4335 -4.08438,-5.4788 -8.39062,-6.22266 -2.74818,0 -5.38184,0.14539 -8.10547,0.5 z m -81.73438,62.33984 c -1.94326,0.14019 -1.94326,0.14019 -3.92578,0.28321 -1.36329,0.10468 -2.72657,0.2095 -4.08984,0.31445 -1.37886,0.1015 -2.75777,0.20241 -4.13672,0.30273 -3.37156,0.24757 -6.74256,0.50104 -10.11328,0.75977 0,0.33 0,0.66 0,1 11.22493,2.46789 21.92803,0.18064 33,-2 -3.67131,-1.21185 -6.9065,-0.94557 -10.73438,-0.66016 z"
       fill="#3a3a3a"
       id="path1" /><path
       d="M 0,0 C 3.7478984,0.83286631 5.5200745,2.1374084 7.6992187,5.2695312 9.6925678,10.032755 9.662916,14.578683 8.671875,19.59375 c -2.0769911,4.562093 -4.9987399,7.816882 -9.5,10.0625 -3.8544159,1.032433 -5.7328017,1.21995 -9.5,-0.0625 -2.857653,-1.91623 -5.43366,-3.867319 -7,-7 -0.791761,-7.600907 1.911922,-13.8362455 6.0625,-20.125 C -7.4142619,0.0104331 -4.520614,-0.24435752 0,0 Z m -9.328125,8.59375 c -2.103348,3.789502 -3.035759,7.034504 -2.875,11.375 0.681316,2.939279 0.681316,2.939279 3.875,4.625 3.9408417,0.599693 5.4999773,0.34446 8.8125,-1.9375 2.8335844,-3.967018 3.4852782,-7.225861 3.1875,-12.0625 -0.8452013,-2.6584422 -0.8452013,-2.6584422 -3,-4 -3.8058976,-0.4858593 -6.9880649,-0.4926359 -10,2 z"
       fill="#4a4a4a"
       transform="translate(548.32812,721.40625)"
       id="path2" /><path
       d="M 0,0 C -0.59315458,5.140673 -4.2846776,8.6023299 -8.109375,11.71875 -10.051734,13.178963 -12.009113,14.606873 -14,16 c 1.131797,0.242344 2.263594,0.484687 3.429687,0.734375 1.4819715,0.337664 2.9637318,0.676254 4.445313,1.015625 0.7463672,0.157266 1.4927344,0.314531 2.2617187,0.476562 5.5258106,1.294334 5.5258106,1.294334 7.3710938,3.914063 C 3.7514453,23.061016 3.7514453,23.061016 4,24 c -1.8790085,1.879009 -4.56381936,1.249804 -7.0625,1.257812 -2.9634416,-0.260089 -5.7025271,-0.905803 -8.580566,-1.638427 -5.962525,-1.707548 -5.962525,-1.707548 -11.770996,-0.482666 -1.854877,1.612883 -1.854877,1.612883 -3.289063,3.445312 C -27.131094,27.049961 -27.559062,27.517891 -28,28 c -0.99,0 -1.98,0 -3,0 0.530691,-3.820972 1.497016,-6.061714 4,-9 -1.32,-0.66 -2.64,-1.32 -4,-2 0,-0.99 0,-1.98 0,-3 0.643242,0.139219 1.286484,0.278438 1.949219,0.421875 3.982054,0.477165 7.317038,0.713942 10.799316,-1.567383 C -15.223557,10.365046 -12.480668,7.6282272 -9.75,4.8203125 -5.0498615,0 -5.0498615,0 0,0 Z"
       fill="#4d4d4d"
       transform="translate(411,637)"
       id="path6" /><path
       d="m 0,0 c 7.9928869,-0.17142921 7.9928869,-0.17142921 11.914063,2.125 -0.33,1.65 -0.66,3.3 -1,5 C 10.077461,7.1133984 9.2408594,7.1017969 8.3789063,7.0898437 0.48812349,7.0286749 -7.242318,7.343534 -15.101563,8.0039063 -18.085937,8.125 -18.085937,8.125 -20.085937,7.125 c 0,-0.99 0,-1.98 0,-3 C -14.166685,-0.40591875 -7.1366312,0.28907873 0,0 Z"
       fill="#8f8f8f"
       transform="translate(354.08594,197.875)"
       id="path11"
       style="fill:#454545;fill-opacity:1" /><path
       d="m 0,0 c 2.5625,0.3125 2.5625,0.3125 4.4375,1.4375 1.125,1.875 1.125,1.875 0.9375,4.9375 -0.8125,2.9375 -0.8125,2.9375 -2.8125,4.9375 -2.4375,0.375 -2.4375,0.375 -5,0 -1.875,-1.6875 -1.875,-1.6875 -3,-4 C -5.1460909,3.2327723 -4.4350566,0.56859701 0,0 Z"
       fill="#4b4b4b"
       transform="translate(300.4375,180.6875)"
       id="path19" /><path
       d="M 0,0 C 2,3 2,3 1.625,6.1875 1.41875,7.115625 1.2125,8.04375 1,9 -1.31,9.33 -3.62,9.66 -6,10 -7.625,8.375 -7.625,8.375 -9,6 c 0.6875,-3.1875 0.6875,-3.1875 2,-6 2.7241592,-1.3620796 4.1277936,-0.86166193 7,0 z"
       fill="#454545"
       transform="translate(396,179)"
       id="path20" /></g><g
     inkscape:groupmode="layer"
     id="layer1"
     inkscape:label="outline"><path
       style="display:inline;fill:none;fill-opacity:1;stroke:#ff00ff;stroke-width:2;stroke-dasharray:none;stroke-opacity:1"
       d="M 243.22713,249.15215 C 245.8175,194.27798 246.05673,136.917 282.88991,90.513577 308.258,58.55417 333.55371,44.312288 375.6059,40.817123 c 42.06441,-1.441729 69.47729,20.381877 84.3443,41.697483 18.2237,26.128274 40.65113,33.074094 45.13217,4.119196 4.95948,-32.046414 6.34932,-63.828957 26.5097,-85.4720611 20.84353,-22.3764919 33.10776,9.3810531 42.79715,41.8133861 9.82863,32.898402 24.30008,65.656663 5.46975,103.037593 -18.77027,37.26169 -15.8057,92.76116 -14.5478,130.35951 4.68718,140.09901 -4.59918,293.29649 5.70826,398.37574 4.45894,45.45672 21.48018,79.55526 -17.29761,95.77658 -20.62122,8.62616 -47.4653,-33.79867 -55.50168,0.29928 -6.50439,27.59777 -64.64683,43.15017 -84.83363,8.91316 -19.95312,-33.84067 -45.77087,-23.70211 -58.96737,-4.78734 -13.02809,18.67338 -122.43657,6.68012 -92.01369,-15.3195 29.68683,-21.46736 36.92693,-59.85838 -0.0574,-74.95351 -34.76987,-14.19129 -23.55332,-86.87344 -22.21981,-118.1817 1.96952,-46.24056 -11.20556,-84.24252 -20.28631,-126.35891 -9.36654,-43.44191 21.24606,-70.67769 22.21174,-123.72563 0.4096,-22.50075 -0.18311,-38.52027 1.17349,-67.25825 z"
       id="path3"
       sodipodi:nodetypes="ssssssssssssssssssss"
       transform="matrix(0.26458333,0,0,0.26458333,-3.7831615,33.20275)" /></g></svg>
